<svg width="34" height="38" viewBox="0 0 34 38" fill="none" xmlns="http://www.w3.org/2000/svg">
<rect width="34" height="38" fill="white"/>
<path d="M12 14.7965C12 10.694 12 6.6012 12 2.49877C12 1.5188 12.4131 1.11528 13.3835 1.11528C14.056 1.11528 14.594 1.11528 15.3723 1.11528C15.7758 1.11528 16.0064 1.21136 15.9967 1.72056C15.9679 3.90147 15.9871 6.07278 15.9871 8.2537C15.9871 13.3745 15.9871 18.505 15.9871 23.6258C15.9871 25.7395 14.6997 27.3151 12.6149 27.7378C12.0576 27.8531 12 27.8051 12 27.2479C12 23.0974 12 18.9469 12 14.7965Z" fill="#2A56C9"/>
<path d="M17.6108 27.7667C17.7453 25.4609 19.6572 23.6066 21.6364 23.8468C21.6364 24.5289 21.646 25.2303 21.6364 25.922C21.6268 26.2679 21.6268 26.6234 21.5595 26.9693C21.473 27.4016 21.1656 27.7283 20.7429 27.7475C19.7053 27.7955 18.6772 27.7667 17.6108 27.7667Z" fill="#2A56C9"/>
</svg>
