<svg width="112" height="38" viewBox="0 0 112 38" fill="none" xmlns="http://www.w3.org/2000/svg">
<g clip-path="url(#clip0_413_7713)">
<rect width="112" height="38" fill="white"/>
<path d="M7.14086 1C7.13125 1.19215 7.10243 1.3843 7.10243 1.56685C7.10243 8.91663 7.10243 16.2664 7.10243 23.6162C7.10243 24.2695 7.10243 24.2791 7.74614 24.2791C9.92705 24.2791 12.0984 24.2887 14.2793 24.2695C14.6636 24.2695 14.8173 24.3656 14.7981 24.7787C14.7693 25.5954 14.7693 26.412 14.7981 27.2287C14.8173 27.6706 14.6828 27.7955 14.2409 27.7955C10.7053 27.7763 7.16008 27.7859 3.62449 27.7859C3.41313 27.7859 3.21137 27.8051 3 27.8147C3.00961 18.8701 3.00961 9.93504 3.00961 1C4.3931 1 5.76698 1 7.14086 1Z" fill="#2A56C9"/>
<path d="M98.2686 13.8838C98.2975 13.0575 98.3455 12.3273 98.3359 11.5972C98.3263 11.2032 98.4608 11.1072 98.8355 11.1168C99.7674 11.136 100.69 11.136 101.622 11.1168C101.939 11.1072 102.035 11.2225 102.035 11.5299C102.025 16.8141 102.025 22.0886 102.035 27.3728C102.035 27.6514 101.977 27.7859 101.66 27.7763C100.699 27.7667 99.7386 27.7667 98.7778 27.7763C98.4704 27.7763 98.3455 27.661 98.3455 27.3536C98.3551 26.7291 98.3455 26.1046 98.3359 25.4801C98.3359 25.3168 98.3071 25.1534 98.2878 24.8748C98.1533 25.0381 98.0861 25.0958 98.038 25.1726C96.3759 27.5649 94.0509 28.3912 91.2455 28.0741C88.5554 27.7763 86.509 26.4312 85.1255 24.1158C84.0783 22.3672 83.8285 20.4265 83.9822 18.4281C84.0975 16.9294 84.4529 15.4978 85.2792 14.22C86.7299 11.9815 88.834 10.8958 91.4473 10.7229C93.6954 10.5691 95.6842 11.2032 97.3271 12.7693C97.6345 13.0767 97.8843 13.4322 98.2686 13.8838ZM92.9268 24.9805C94.4352 24.9997 95.7226 24.4713 96.7026 23.3184C98.4416 21.2624 98.3743 17.7268 96.6257 15.6323C94.6082 13.2208 90.2175 13.2881 88.6418 16.4586C87.9789 17.794 87.8732 19.2063 88.0846 20.6667C88.5073 23.4721 90.1598 24.9421 92.9268 24.9805Z" fill="#2A56C9"/>
<path d="M31.9284 13.8645C31.9668 13.0383 32.0149 12.2985 32.0245 11.5491C32.0341 11.2032 32.1686 11.1168 32.4856 11.1264C33.3791 11.1456 34.2822 11.1552 35.1757 11.1264C35.56 11.1168 35.6657 11.2417 35.6657 11.6164C35.6465 13.7492 35.6561 15.8725 35.6561 18.0054C35.6561 21.0798 35.6465 24.1542 35.6657 27.219C35.6657 27.6898 35.5216 27.8243 35.0701 27.8051C34.2534 27.7667 33.4368 27.7667 32.6201 27.8051C32.1398 27.8243 32.0245 27.6514 32.0437 27.2094C32.0725 26.4793 32.0533 25.7491 32.0533 25.0189C32.0052 25.0189 31.9668 25.0285 31.9188 25.0285C31.4672 25.5281 31.0541 26.0757 30.5449 26.5177C28.9308 27.93 27.0189 28.3335 24.9149 28.1125C21.3216 27.7379 18.3625 24.9901 17.7957 21.4161C17.3345 18.5338 17.6035 15.7572 19.5731 13.3938C21.0142 11.6644 22.9357 10.8766 25.1647 10.7421C27.3648 10.6076 29.3055 11.2224 30.9292 12.7212C31.2751 13.0287 31.5537 13.4226 31.9284 13.8645ZM26.577 24.9805C28.633 25.0093 30.4392 23.9044 31.1694 22.0502C31.8707 20.2632 31.8515 18.4281 30.9868 16.7084C30.0453 14.8157 28.4408 13.8837 26.3176 13.9606C24.3384 14.0375 22.9357 15.0078 22.1575 16.8333C21.6963 17.9093 21.6195 19.0526 21.7155 20.2151C21.9077 22.7323 23.32 24.9997 26.577 24.9805Z" fill="#2A56C9"/>
<path d="M38.6825 11.1264C40.018 11.1264 41.2765 11.1168 42.5447 11.1456C42.66 11.1456 42.833 11.3666 42.8906 11.5203C43.9763 14.4026 45.0523 17.2944 46.1188 20.1863C46.1956 20.4073 46.2821 20.6187 46.4262 20.9741C48.0691 17.6307 49.6543 14.4122 51.2972 11.0783C52.9401 14.3641 54.535 17.5634 56.1875 20.8684C56.3124 20.5802 56.3989 20.4169 56.4565 20.2343C57.5229 17.3809 58.599 14.5178 59.6462 11.6548C59.7999 11.2513 59.9921 11.0976 60.434 11.1168C61.5485 11.1552 62.6726 11.1264 63.8543 11.1264C63.7871 11.3185 63.7583 11.4722 63.691 11.6164C61.5005 16.8525 59.3099 22.079 57.1098 27.3151C57.0137 27.5457 56.9753 27.7955 56.6102 27.7955C56.274 27.8051 56.1779 27.5937 56.053 27.3632C54.6407 24.7115 53.2284 22.0598 51.8064 19.4081C51.6527 19.1103 51.4894 18.822 51.278 18.4473C50.9802 18.995 50.7112 19.4657 50.4614 19.9365C49.1355 22.4153 47.8097 24.9036 46.4935 27.3824C46.3686 27.6226 46.2341 27.8724 45.9266 27.7667C45.7537 27.709 45.5519 27.5457 45.4847 27.3824C43.2365 22.0886 41.0075 16.7852 38.7786 11.4819C38.7498 11.3954 38.7305 11.2993 38.6825 11.1264Z" fill="#2A56C9"/>
<path d="M67.9952 36.9995C68.3795 36.058 68.735 35.2125 69.0808 34.3575C69.8398 32.532 70.5988 30.697 71.377 28.8715C71.5308 28.5161 71.5308 28.2278 71.3867 27.8724C69.2057 22.4825 67.044 17.0831 64.8823 11.6932C64.8151 11.5299 64.7574 11.3762 64.6614 11.1264C65.2186 11.1264 65.699 11.1264 66.189 11.1264C66.9864 11.1264 67.7934 11.136 68.5909 11.1168C68.8791 11.1072 69.0136 11.1936 69.1097 11.4819C70.4451 15.5266 71.7902 19.5714 73.1256 23.6162C73.2025 23.8372 73.2793 24.0582 73.4139 24.4232C73.5291 24.1254 73.5964 23.9525 73.654 23.7891C75.0664 19.6963 76.4787 15.6035 77.9102 11.5203C77.9678 11.3666 78.16 11.1456 78.3041 11.1456C79.5819 11.1168 80.8597 11.1264 82.2144 11.1264C81.9838 11.7317 81.7724 12.2793 81.5611 12.8173C78.4194 20.7339 75.2777 28.641 72.1457 36.5576C72.0208 36.865 71.8766 37.0092 71.5212 36.9995C70.3779 36.9803 69.2442 36.9995 67.9952 36.9995Z" fill="#2A56C9"/>
<path d="M106.512 14.7965C106.512 10.694 106.512 6.6012 106.512 2.49877C106.512 1.5188 106.925 1.11528 107.895 1.11528C108.568 1.11528 109.106 1.11528 109.884 1.11528C110.288 1.11528 110.518 1.21136 110.509 1.72056C110.48 3.90147 110.499 6.07278 110.499 8.2537C110.499 13.3745 110.499 18.505 110.499 23.6258C110.499 25.7395 109.212 27.3151 107.127 27.7378C106.57 27.8531 106.512 27.8051 106.512 27.2479C106.512 23.0974 106.512 18.9469 106.512 14.7965Z" fill="#2A56C9"/>
</g>
<defs>
<clipPath id="clip0_413_7713">
<rect width="112" height="38" fill="white"/>
</clipPath>
</defs>
</svg>
