<svg width="34" height="38" viewBox="0 0 34 38" fill="none" xmlns="http://www.w3.org/2000/svg">
<rect width="34" height="38" fill="white"/>
<path d="M19.4446 11.9647C22.2107 11.986 24.954 12.4678 27.5617 13.3904L30.8848 6.74075C31.1556 6.20187 31.2833 5.60244 31.2556 5C26.7389 6.15874 22.6428 8.57288 19.4412 11.963L19.4446 11.9647Z" fill="#6AB6EF"/>
<path d="M13.7821 19.4813C14.0118 19.6136 14.2277 19.7581 14.4505 19.8956C14.9279 18.6435 15.5102 17.434 16.1912 16.28C17.1112 14.726 18.2006 13.2787 19.4395 11.9647C19.3141 11.9647 19.1906 11.9647 19.0652 11.9647H18.8737C14.5403 11.9282 10.275 13.0438 6.51445 15.1973C5.99222 15.495 5.49089 15.8118 5 16.139L5.188 16.5168C8.21599 16.9459 11.1335 17.9523 13.7821 19.4813V19.4813Z" fill="#6AB6EF"/>
<path d="M16.1966 16.28C15.5155 17.434 14.9332 18.6435 14.4558 19.8956C17.0842 21.5081 19.3797 23.6086 21.2186 26.0839L27.5636 13.3904C24.9558 12.4678 22.2126 11.986 19.4465 11.9647C18.2075 13.279 17.1176 14.7263 16.1966 16.28V16.28Z" fill="#3184DD"/>
<path d="M14.4521 19.8955C14.2275 19.758 14.0117 19.6135 13.7836 19.4812C11.137 17.9545 8.22188 16.9499 5.19653 16.522L12.4328 30.9963C12.6099 31.3515 12.8452 31.6745 13.1291 31.9519C12.977 30.8163 12.9008 29.6719 12.9011 28.5262C12.8848 25.5785 13.4105 22.653 14.4521 19.8955V19.8955Z" fill="#3184DD"/>
<path d="M14.4525 19.8956C13.4134 22.6536 12.8901 25.579 12.9084 28.5262C12.9079 29.672 12.9846 30.8165 13.1382 31.952C13.5368 32.3386 14.021 32.6259 14.5513 32.7905C15.0817 32.9551 15.6435 32.9924 16.1909 32.8993C16.7384 32.8062 17.2563 32.5854 17.7025 32.2547C18.1487 31.9241 18.5106 31.493 18.7591 30.9963L21.2153 26.0857C19.3774 23.609 17.0817 21.5077 14.4525 19.8956V19.8956Z" fill="#1960CF"/>
</svg>
