<svg width="112" height="38" viewBox="0 0 112 38" fill="none" xmlns="http://www.w3.org/2000/svg">
<rect width="112" height="38" fill="white"/>
<path d="M18.5912 23.6764C18.5912 29.0989 14.5422 32.972 9.29558 32.972C4.08553 32.972 0 29.0989 0 23.6764C0 18.254 4.08553 14.4174 9.29558 14.4174C14.5422 14.4174 18.5912 18.254 18.5912 23.6764ZM13.2401 23.6764C13.2401 20.7172 11.3392 19.3455 9.29558 19.3455C7.2885 19.3455 5.35279 20.7189 5.35279 23.6764C5.35279 26.5992 7.2885 28.0422 9.29558 28.0422C11.3392 28.0388 13.2401 26.634 13.2401 23.6764Z" fill="#262626"/>
<path d="M50.2708 32.4446C49.4866 32.4429 48.7205 32.2084 48.0697 31.7708C47.4189 31.3332 46.9127 30.7123 46.6152 29.9867L40.4338 14.9449H46.2427L50.2917 25.8245L54.0238 14.9449H59.6569L53.9734 29.8909C53.6878 30.6417 53.1808 31.288 52.5196 31.7441C51.8583 32.2002 51.0741 32.4445 50.2708 32.4446V32.4446Z" fill="#262626"/>
<path d="M29.2742 32.4446C28.4886 32.4444 27.7207 32.2106 27.0683 31.7729C26.4158 31.3353 25.9082 30.7135 25.61 29.9867L19.4355 14.9449H25.2461L29.2951 25.8245L33.0273 14.9449H38.6603L32.9768 29.8909C32.6913 30.6417 32.1843 31.288 31.523 31.7441C30.8618 32.2002 30.0775 32.4445 29.2742 32.4446V32.4446Z" fill="#262626"/>
<path d="M63.3145 32.4446V14.9449H68.6672V32.4446H63.3145Z" fill="#262626"/>
<path d="M91.1526 23.6764C91.1526 29.0989 87.1037 32.972 81.8588 32.972C76.647 32.972 72.5632 29.0989 72.5632 23.6764C72.5632 18.254 76.647 14.4174 81.8588 14.4174C87.1037 14.4174 91.1526 18.254 91.1526 23.6764ZM85.8016 23.6764C85.8016 20.7172 83.9007 19.3455 81.8588 19.3455C79.8517 19.3455 77.9143 20.7189 77.9143 23.6764C77.9143 26.5992 79.8517 28.0422 81.8588 28.0422C83.9007 28.0388 85.8016 26.634 85.8016 23.6764Z" fill="#262626"/>
<path d="M65.9914 11.7402C67.8527 11.7402 69.3615 10.2313 69.3615 8.37008C69.3615 6.50884 67.8527 5 65.9914 5C64.1302 5 62.6213 6.50884 62.6213 8.37008C62.6213 10.2313 64.1302 11.7402 65.9914 11.7402Z" fill="#262626"/>
</svg>
