<svg width="121" height="28" viewBox="0 0 121 28" fill="none" xmlns="http://www.w3.org/2000/svg">
<g clip-path="url(#clip0_3393_435976)">
<path d="M48.3988 18.6764C48.3988 24.0989 44.3498 27.972 39.1032 27.972C33.8932 27.972 29.8076 24.0989 29.8076 18.6764C29.8076 13.254 33.8932 9.41742 39.1032 9.41742C44.3498 9.41742 48.3988 13.254 48.3988 18.6764ZM43.0477 18.6764C43.0477 15.7172 41.1468 14.3455 39.1032 14.3455C37.0961 14.3455 35.1604 15.7189 35.1604 18.6764C35.1604 21.5992 37.0961 23.0422 39.1032 23.0422C41.1468 23.0388 43.0477 21.634 43.0477 18.6764Z" fill="#262626"/>
<path d="M80.0787 27.4446C79.2944 27.4429 78.5284 27.2084 77.8776 26.7708C77.2268 26.3332 76.7206 25.7123 76.4231 24.9867L70.2417 9.94489H76.0506L80.0995 20.8245L83.8317 9.94489H89.4647L83.7812 24.8909C83.4957 25.6417 82.9887 26.288 82.3274 26.7441C81.6662 27.2002 80.8819 27.4445 80.0787 27.4446Z" fill="#262626"/>
<path d="M59.0819 27.4446C58.2962 27.4444 57.5284 27.2106 56.8759 26.7729C56.2234 26.3353 55.7158 25.7135 55.4176 24.9867L49.2432 9.94489H55.0538L59.1027 20.8245L62.8349 9.94489H68.4679L62.7844 24.8909C62.4989 25.6417 61.9919 26.288 61.3306 26.7441C60.6694 27.2002 59.8851 27.4445 59.0819 27.4446Z" fill="#262626"/>
<path d="M93.1221 27.4446V9.94489H98.4749V27.4446H93.1221Z" fill="#262626"/>
<path d="M120.96 18.6764C120.96 24.0989 116.911 27.972 111.666 27.972C106.454 27.972 102.371 24.0989 102.371 18.6764C102.371 13.254 106.454 9.41742 111.666 9.41742C116.911 9.41742 120.96 13.254 120.96 18.6764ZM115.609 18.6764C115.609 15.7172 113.708 14.3455 111.666 14.3455C109.659 14.3455 107.722 15.7189 107.722 18.6764C107.722 21.5992 109.659 23.0422 111.666 23.0422C113.708 23.0388 115.609 21.634 115.609 18.6764Z" fill="#262626"/>
<path d="M95.7993 6.74017C97.6605 6.74017 99.1694 5.23133 99.1694 3.37008C99.1694 1.50884 97.6605 0 95.7993 0C93.938 0 92.4292 1.50884 92.4292 3.37008C92.4292 5.23133 93.938 6.74017 95.7993 6.74017Z" fill="#262626"/>
<path d="M15.4444 6.96472C18.2105 6.98603 20.9537 7.46784 23.5615 8.39039L26.8846 1.74075C27.1553 1.20187 27.283 0.602437 27.2554 0C22.7387 1.15874 18.6425 3.57288 15.4409 6.96298L15.4444 6.96472Z" fill="#6AB6EF"/>
<path d="M9.78206 14.4813C10.0118 14.6136 10.2277 14.7581 10.4505 14.8956C10.9279 13.6435 11.5102 12.434 12.1912 11.28C13.1112 9.72602 14.2006 8.27875 15.4395 6.96474C15.3141 6.96474 15.1906 6.96474 15.0652 6.96474H14.8737C10.5403 6.92819 6.27504 8.04378 2.51445 10.1973C1.99222 10.495 1.49089 10.8118 1 11.139L1.188 11.5168C4.21599 11.9459 7.13346 12.9523 9.78206 14.4813Z" fill="#6AB6EF"/>
<path d="M12.1963 11.28C11.5153 12.434 10.933 13.6435 10.4556 14.8956C13.0839 16.5081 15.3795 18.6086 17.2184 21.0839L23.5634 8.39039C20.9556 7.46784 18.2124 6.98603 15.4463 6.96472C14.2073 8.27905 13.1174 9.72627 12.1963 11.28Z" fill="#3184DD"/>
<path d="M10.4523 14.8955C10.2278 14.758 10.0119 14.6135 9.78387 14.4812C7.13723 12.9545 4.22213 11.9499 1.19678 11.522L8.43306 25.9963C8.61012 26.3515 8.84548 26.6745 9.12935 26.9519C8.97725 25.8163 8.90107 24.6719 8.90132 23.5262C8.88501 20.5785 9.41075 17.653 10.4523 14.8955Z" fill="#3184DD"/>
<path d="M10.4522 14.8956C9.41319 17.6536 8.88981 20.579 8.90818 23.5262C8.90761 24.672 8.98438 25.8165 9.13796 26.952C9.53657 27.3386 10.0207 27.6259 10.5511 27.7905C11.0815 27.9551 11.6432 27.9924 12.1907 27.8993C12.7382 27.8062 13.256 27.5854 13.7022 27.2547C14.1484 26.9241 14.5104 26.493 14.7588 25.9963L17.215 21.0857C15.3771 18.609 13.0814 16.5077 10.4522 14.8956Z" fill="#1960CF"/>
</g>
<defs>
<clipPath id="clip0_3393_435976">
<rect width="121" height="28" fill="white"/>
</clipPath>
</defs>
</svg>
