<svg xmlns="http://www.w3.org/2000/svg" width="16" height="16" viewBox="0 0 16 16" fill="none">
  <g clip-path="url(#clip0_1217_15749)">
    <path opacity="0.7" d="M1 13V13.5C1 14.3284 1.67157 15 2.5 15V15C3.32843 15 4 14.3284 4 13.5V13" stroke="#4D4D4D" stroke-width="2" stroke-linecap="round"/>
    <path opacity="0.7" d="M1 10V13" stroke="#4D4D4D" stroke-width="2" stroke-linecap="round"/>
    <path opacity="0.7" d="M1 10H3.5" stroke="#4D4D4D" stroke-width="2" stroke-linecap="round"/>
    <path opacity="0.7" d="M15 12V13C15 14.1046 14.1046 15 13 15H12" stroke="#8C8C8C" stroke-width="2" stroke-linecap="round"/>
    <path opacity="0.7" d="M3 15H12" stroke="#8C8C8C" stroke-width="2" stroke-linecap="round"/>
    <path opacity="0.7" d="M15 1V12" stroke="#3F3F3F" stroke-width="2" stroke-linecap="round"/>
    <path opacity="0.7" d="M4 1H15" stroke="#3F3F3F" stroke-width="2" stroke-linecap="round"/>
    <path opacity="0.7" d="M4 1V13" stroke="#4D4D4D" stroke-width="2" stroke-linecap="round"/>
    <line opacity="0.7" x1="12" y1="5" x2="7" y2="5" stroke="#3F3F3F" stroke-width="2" stroke-linecap="round"/>
    <line opacity="0.7" x1="12" y1="8" x2="7" y2="8" stroke="#3F3F3F" stroke-width="2" stroke-linecap="round"/>
    <line opacity="0.7" x1="12" y1="11" x2="7" y2="11" stroke="#3F3F3F" stroke-width="2" stroke-linecap="round"/>
  </g>
  <defs>
    <clipPath id="clip0_1217_15749">
      <rect width="16" height="16" fill="white"/>
    </clipPath>
  </defs>
</svg>