<svg width="93" height="24" viewBox="0 0 93 24" fill="none" xmlns="http://www.w3.org/2000/svg">
<rect x="41" width="52" height="24" rx="12" fill="#E5E5E5"/>
<rect y="5" width="38" height="15" rx="2" fill="#3F3F3F"/>
<path d="M6.98 16.07C6.52 16.07 6.10667 15.99 5.74 15.83C5.38 15.6633 5.09667 15.4367 4.89 15.15C4.68333 14.8567 4.57667 14.52 4.57 14.14H5.54C5.57333 14.4667 5.70667 14.7433 5.94 14.97C6.18 15.19 6.52667 15.3 6.98 15.3C7.41333 15.3 7.75333 15.1933 8 14.98C8.25333 14.76 8.38 14.48 8.38 14.14C8.38 13.8733 8.30667 13.6567 8.16 13.49C8.01333 13.3233 7.83 13.1967 7.61 13.11C7.39 13.0233 7.09333 12.93 6.72 12.83C6.26 12.71 5.89 12.59 5.61 12.47C5.33667 12.35 5.1 12.1633 4.9 11.91C4.70667 11.65 4.61 11.3033 4.61 10.87C4.61 10.49 4.70667 10.1533 4.9 9.86C5.09333 9.56667 5.36333 9.34 5.71 9.18C6.06333 9.02 6.46667 8.94 6.92 8.94C7.57333 8.94 8.10667 9.10333 8.52 9.43C8.94 9.75667 9.17667 10.19 9.23 10.73H8.23C8.19667 10.4633 8.05667 10.23 7.81 10.03C7.56333 9.82333 7.23667 9.72 6.83 9.72C6.45 9.72 6.14 9.82 5.9 10.02C5.66 10.2133 5.54 10.4867 5.54 10.84C5.54 11.0933 5.61 11.3 5.75 11.46C5.89667 11.62 6.07333 11.7433 6.28 11.83C6.49333 11.91 6.79 12.0033 7.17 12.11C7.63 12.2367 8 12.3633 8.28 12.49C8.56 12.61 8.8 12.8 9 13.06C9.2 13.3133 9.3 13.66 9.3 14.1C9.3 14.44 9.21 14.76 9.03 15.06C8.85 15.36 8.58333 15.6033 8.23 15.79C7.87667 15.9767 7.46 16.07 6.98 16.07ZM15.5391 13.05C15.5391 13.2233 15.5291 13.4067 15.5091 13.6H11.1291C11.1625 14.14 11.3458 14.5633 11.6791 14.87C12.0191 15.17 12.4291 15.32 12.9091 15.32C13.3025 15.32 13.6291 15.23 13.8891 15.05C14.1558 14.8633 14.3425 14.6167 14.4491 14.31H15.4291C15.2825 14.8367 14.9891 15.2667 14.5491 15.6C14.1091 15.9267 13.5625 16.09 12.9091 16.09C12.3891 16.09 11.9225 15.9733 11.5091 15.74C11.1025 15.5067 10.7825 15.1767 10.5491 14.75C10.3158 14.3167 10.1991 13.8167 10.1991 13.25C10.1991 12.6833 10.3125 12.1867 10.5391 11.76C10.7658 11.3333 11.0825 11.0067 11.4891 10.78C11.9025 10.5467 12.3758 10.43 12.9091 10.43C13.4291 10.43 13.8891 10.5433 14.2891 10.77C14.6891 10.9967 14.9958 11.31 15.2091 11.71C15.4291 12.1033 15.5391 12.55 15.5391 13.05ZM14.5991 12.86C14.5991 12.5133 14.5225 12.2167 14.3691 11.97C14.2158 11.7167 14.0058 11.5267 13.7391 11.4C13.4791 11.2667 13.1891 11.2 12.8691 11.2C12.4091 11.2 12.0158 11.3467 11.6891 11.64C11.3691 11.9333 11.1858 12.34 11.1391 12.86H14.5991ZM17.5503 8.6V16H16.6403V8.6H17.5503ZM24.0013 13.05C24.0013 13.2233 23.9912 13.4067 23.9712 13.6H19.5912C19.6246 14.14 19.8079 14.5633 20.1412 14.87C20.4812 15.17 20.8912 15.32 21.3712 15.32C21.7646 15.32 22.0913 15.23 22.3513 15.05C22.6179 14.8633 22.8046 14.6167 22.9113 14.31H23.8913C23.7446 14.8367 23.4513 15.2667 23.0112 15.6C22.5713 15.9267 22.0246 16.09 21.3712 16.09C20.8512 16.09 20.3846 15.9733 19.9712 15.74C19.5646 15.5067 19.2446 15.1767 19.0112 14.75C18.7779 14.3167 18.6612 13.8167 18.6612 13.25C18.6612 12.6833 18.7746 12.1867 19.0012 11.76C19.2279 11.3333 19.5446 11.0067 19.9512 10.78C20.3646 10.5467 20.8379 10.43 21.3712 10.43C21.8912 10.43 22.3513 10.5433 22.7513 10.77C23.1513 10.9967 23.4579 11.31 23.6713 11.71C23.8913 12.1033 24.0013 12.55 24.0013 13.05ZM23.0612 12.86C23.0612 12.5133 22.9846 12.2167 22.8312 11.97C22.6779 11.7167 22.4679 11.5267 22.2012 11.4C21.9412 11.2667 21.6512 11.2 21.3312 11.2C20.8712 11.2 20.4779 11.3467 20.1512 11.64C19.8312 11.9333 19.6479 12.34 19.6012 12.86H23.0612ZM24.7624 13.25C24.7624 12.6833 24.8758 12.19 25.1024 11.77C25.3291 11.3433 25.6424 11.0133 26.0424 10.78C26.4491 10.5467 26.9124 10.43 27.4324 10.43C28.1058 10.43 28.6591 10.5933 29.0924 10.92C29.5324 11.2467 29.8224 11.7 29.9624 12.28H28.9824C28.8891 11.9467 28.7058 11.6833 28.4324 11.49C28.1658 11.2967 27.8324 11.2 27.4324 11.2C26.9124 11.2 26.4924 11.38 26.1724 11.74C25.8524 12.0933 25.6924 12.5967 25.6924 13.25C25.6924 13.91 25.8524 14.42 26.1724 14.78C26.4924 15.14 26.9124 15.32 27.4324 15.32C27.8324 15.32 28.1658 15.2267 28.4324 15.04C28.6991 14.8533 28.8824 14.5867 28.9824 14.24H29.9624C29.8158 14.8 29.5224 15.25 29.0824 15.59C28.6424 15.9233 28.0924 16.09 27.4324 16.09C26.9124 16.09 26.4491 15.9733 26.0424 15.74C25.6424 15.5067 25.3291 15.1767 25.1024 14.75C24.8758 14.3233 24.7624 13.8233 24.7624 13.25ZM32.1866 11.27V14.5C32.1866 14.7667 32.2433 14.9567 32.3566 15.07C32.47 15.1767 32.6666 15.23 32.9466 15.23H33.6166V16H32.7966C32.29 16 31.91 15.8833 31.6566 15.65C31.4033 15.4167 31.2766 15.0333 31.2766 14.5V11.27H30.5666V10.52H31.2766V9.14H32.1866V10.52H33.6166V11.27H32.1866Z" fill="white"/>
<circle cx="55" cy="12" r="8" fill="#B3B3B3"/>
</svg>
