<svg width="112" height="38" viewBox="0 0 112 38" fill="none" xmlns="http://www.w3.org/2000/svg">
<rect width="112" height="38" fill="white"/>
<path d="M10.8662 30.9482C10.0744 30.8492 9.27634 30.676 8.89898 30.5275C8.34842 30.311 7.79785 30.0821 7.27202 29.8099C6.75239 29.5378 6.25131 29.2099 5.7626 28.8758C5.36669 28.6098 4.97696 28.3315 4.62435 28.0098C3.96243 27.3973 3.31289 26.7664 2.83656 25.9807C2.45301 25.3435 2.0138 24.7435 1.66737 24.0878C1.40137 23.5743 1.21578 23.0176 1.04876 22.4608C0.850802 21.8236 0.634286 21.1803 0.553866 20.5307C0.380654 19.1388 0.374468 17.7346 0.584797 16.3427C0.659031 15.8416 0.838429 15.3529 1.01783 14.8704C1.27765 14.1528 1.53746 13.4352 1.87152 12.7547C2.12515 12.2413 2.47157 11.7649 2.82418 11.3072C3.23247 10.7628 3.64075 10.2122 4.12946 9.74208C4.74189 9.15439 5.40381 8.60383 6.10284 8.11512C6.62248 7.75014 7.21635 7.48413 7.79166 7.20576C8.34223 6.94594 8.89898 6.67993 9.48048 6.51909C10.2971 6.29021 11.1446 6.18504 12.0044 6.14792C13.2478 6.09225 14.5098 6.14174 15.1841 6.22834C16.3285 6.37681 17.4359 6.79747 17.7204 6.93357C18.3823 7.24906 19.0319 7.59548 19.6814 7.92954C20.5351 8.36875 21.2465 8.99974 21.9208 9.65547C22.5951 10.3112 23.2075 11.0288 23.6777 11.8516C23.987 12.3897 24.3396 12.9094 24.5809 13.4785C24.8531 14.1157 24.9892 14.8023 25.2428 15.4457C25.5521 16.2375 25.583 17.0727 25.6573 17.8954C25.7129 18.4707 25.6511 19.0584 25.614 19.6461C25.5768 20.1967 25.4469 21.0937 25.3108 21.6319C25.1191 22.3989 24.8531 23.1413 24.5252 23.8712C24.1355 24.7187 23.6901 25.5291 23.1024 26.2467C22.5518 26.921 21.9579 27.5829 21.3084 28.1644C20.7331 28.6779 20.0835 29.1357 19.4031 29.513C18.6298 29.9399 18.0669 30.2368 16.9843 30.6141C15.9512 30.9729 14.5531 31.0719 13.4953 31.0657C12.357 31.0472 11.59 31.0348 10.8662 30.9482ZM18.438 21.8917C19.5392 20.0606 19.6196 17.7841 18.6855 15.8664C17.6771 13.794 15.6357 12.4145 13.0499 12.4021C9.58564 12.3836 6.80806 15.124 6.77095 18.514C6.73383 22.0154 9.41243 24.9105 13.0437 24.9043C15.4377 24.9043 17.3616 23.6857 18.438 21.8917Z" fill="#4169DE"/>
<path d="M96.6867 30.9482C95.8948 30.8492 95.0968 30.676 94.7195 30.5275C94.1689 30.311 93.6183 30.0821 93.0925 29.8099C92.5729 29.5378 92.0718 29.2099 91.5831 28.8758C91.1872 28.6098 90.7975 28.3315 90.4448 28.0098C89.7829 27.3973 89.1334 26.7664 88.657 25.9807C88.2735 25.3435 87.8343 24.7435 87.4879 24.0878C87.2219 23.5743 87.0363 23.0176 86.8693 22.4608C86.6713 21.8236 86.4548 21.1803 86.3744 20.5307C86.2011 19.1388 86.195 17.7346 86.4053 16.3427C86.4795 15.8416 86.6589 15.3529 86.8383 14.8704C87.0981 14.1528 87.358 13.4352 87.692 12.7547C87.9456 12.2413 88.2921 11.7649 88.6447 11.3072C89.053 10.7628 89.4612 10.2122 89.95 9.74208C90.5624 9.15439 91.2243 8.60383 91.9233 8.11512C92.443 7.75014 93.0368 7.48413 93.6122 7.20576C94.1627 6.94594 94.7195 6.67993 95.301 6.51909C96.1175 6.29021 96.965 6.18504 97.8249 6.14792C99.0683 6.09225 100.33 6.14174 101.005 6.22834C102.149 6.37681 103.256 6.79747 103.541 6.93357C104.203 7.24906 104.852 7.59548 105.502 7.92954C106.356 8.36875 107.067 8.99974 107.741 9.65547C108.416 10.3112 109.028 11.0288 109.498 11.8516C109.807 12.3897 110.16 12.9094 110.401 13.4785C110.674 14.1157 110.81 14.8023 111.063 15.4457C111.373 16.2375 111.404 17.0727 111.478 17.8954C111.533 18.4707 111.472 19.0584 111.434 19.6461C111.397 20.1967 111.267 21.0937 111.131 21.6319C110.94 22.3989 110.674 23.1413 110.346 23.8712C109.956 24.7187 109.511 25.5291 108.923 26.2467C108.372 26.921 107.778 27.5829 107.129 28.1644C106.554 28.6779 105.904 29.1357 105.224 29.513C104.45 29.9399 103.887 30.2368 102.805 30.6141C101.772 30.9729 100.374 31.0719 99.3158 31.0657C98.1775 31.0472 97.4104 31.0348 96.6867 30.9482ZM104.252 21.8917C105.353 20.0606 105.434 17.7841 104.5 15.8664C103.491 13.794 101.45 12.4145 98.8642 12.4021C95.3999 12.3836 92.6224 15.124 92.5852 18.514C92.5481 22.0154 95.2267 24.9105 98.858 24.9043C101.258 24.9043 103.176 23.6857 104.252 21.8917Z" fill="#4169DE"/>
<path d="M72.7525 31.0039C71.9173 30.9049 71.0513 30.6822 70.4574 30.4657C69.9501 30.2863 69.4491 30.0822 68.9665 29.8409C68.4593 29.5873 67.9582 29.2965 67.4942 28.9748C67.0488 28.6717 66.622 28.3315 66.2385 27.9541C65.6693 27.3974 65.1002 26.8221 64.6115 26.1911C64.0176 25.424 63.5042 24.5889 63.1701 23.6609C62.9289 22.9866 62.6381 22.3309 62.4711 21.6381C62.1432 20.2709 62.0319 18.8729 62.1618 17.4624C62.2175 16.819 62.3226 16.1757 62.4525 15.5385C62.5391 15.1117 62.7062 14.6972 62.8546 14.2889C63.0526 13.7569 63.2505 13.2187 63.498 12.7053C63.7207 12.2475 63.9805 11.8021 64.2836 11.3938C64.6734 10.8556 65.0816 10.3298 65.5456 9.85345C66.0714 9.30906 66.6406 8.78943 67.2282 8.31309C68.0634 7.6388 69.0284 7.16247 70.0182 6.748C71.0946 6.29641 72.2266 6.02422 73.3835 6.00566C74.4722 5.9871 75.5672 6.01803 76.6559 6.04278C77.2931 6.05515 77.9365 6.18506 78.5613 6.33353C79.2108 6.48818 79.8727 6.67995 80.479 6.95214C81.6667 7.48415 82.7864 8.13988 83.6215 9.17297C83.8319 9.51939 84.0174 9.82251 84.2587 10.5834C84.3267 10.8865 84.3886 11.0226 84.401 11.2453C84.4381 12.1114 84.234 12.9032 83.5597 13.4909C82.6751 14.258 81.6853 14.524 80.5099 14.1837C79.749 13.9672 79.1551 13.5033 78.4932 13.1321C78.0416 12.8785 77.5591 12.6805 77.0766 12.4826C75.9136 12.0062 74.6949 12.1547 73.5134 12.3217C72.9133 12.4083 72.3256 12.6929 71.7689 12.9651C71.2802 13.2063 70.7853 13.5033 70.4141 13.8868C69.8017 14.5178 69.2759 15.223 68.9727 16.0891C68.6325 17.0603 68.4469 18.0377 68.5892 19.0522C68.6696 19.6152 68.849 20.1658 68.9727 20.7225C69.1088 21.3473 69.4429 21.8793 69.8264 22.3557C70.3894 23.0485 71.0389 23.6609 71.874 24.0135C72.4988 24.2795 73.1422 24.5765 73.8041 24.6878C74.565 24.8177 75.363 24.8116 76.1425 24.7744C76.6559 24.7497 77.1879 24.6383 77.6766 24.4589C78.4375 24.1744 79.1304 23.7599 79.6995 23.1413C80.6336 22.1206 81.8214 21.8051 83.139 22.201C83.7391 22.3804 84.1845 22.8567 84.4938 23.4259C84.8155 24.0197 85.0443 24.6569 84.9639 25.3312C84.9144 25.758 84.7845 26.2034 84.568 26.5684C84.234 27.1314 83.8504 27.6819 83.3926 28.1459C82.9596 28.5913 82.4338 28.9625 81.9018 29.2965C81.3388 29.6429 80.7388 29.9337 80.1325 30.1997C79.7119 30.3853 79.2665 30.4904 78.8211 30.6142C78.4375 30.7193 78.0478 30.8121 77.6643 30.874C75.7713 31.1895 74.6207 31.2266 72.7525 31.0039Z" fill="#4169DE"/>
<path d="M38.2461 20.7349C38.4317 20.3451 38.6234 19.9554 38.8152 19.5719C39.0193 19.1636 39.2297 18.7553 39.4338 18.347C39.6689 17.883 39.9163 17.4253 40.1514 16.9613C40.4607 16.3613 40.7762 15.7674 41.0731 15.1673C41.2958 14.7157 41.4938 14.2518 41.7227 13.8002C42.0073 13.2373 42.3104 12.6867 42.6011 12.1299C42.8238 11.6969 43.0403 11.2639 43.2569 10.8247C43.4672 10.404 43.6775 9.98334 43.894 9.56268C44.0239 9.30905 44.1848 9.07397 44.2899 8.81415C44.5993 8.08419 44.9766 7.39753 45.6323 6.92119C45.8736 6.74798 46.5726 6.32114 47.5377 6.32114C48.4347 6.32114 48.7749 6.53765 49.276 6.91501C49.6286 7.17482 49.9255 7.52744 50.1915 7.88005C50.6617 8.51103 50.7545 9.25337 50.6926 10.0143C50.6493 10.503 50.4513 10.9298 50.2163 11.3505C49.9936 11.7464 49.8142 12.1732 49.61 12.5815C49.3007 13.2001 48.979 13.8126 48.6697 14.4312C48.4532 14.8642 48.2491 15.3096 48.0387 15.7426C47.9336 15.9653 47.8284 16.1819 47.7109 16.4046C47.2222 17.3387 46.7273 18.2728 46.2509 19.2131C45.954 19.8008 45.688 20.4132 45.3911 21.0009C44.9828 21.7989 44.5498 22.5845 44.1477 23.3763C43.8507 23.9578 43.5909 24.5517 43.3002 25.1394C42.997 25.7518 42.6692 26.3457 42.3661 26.9581C42.0691 27.552 41.7845 28.1459 41.4876 28.7397C41.2092 29.2903 40.9865 29.878 40.5164 30.311C40.1885 30.6141 39.8421 30.8492 39.3534 30.8368C38.5492 30.8121 37.745 30.8368 36.9408 30.8183C36.3407 30.8059 35.9696 30.3976 35.6788 29.946C35.3757 29.4697 35.1468 28.9439 34.887 28.4366C34.6767 28.0283 34.4725 27.62 34.2622 27.2118C34.0457 26.7973 33.823 26.389 33.6127 25.9683C33.359 25.4796 33.1116 24.9909 32.8703 24.496C32.5672 23.8712 32.2826 23.2464 31.9733 22.6216C31.7877 22.2381 31.5712 21.8669 31.3795 21.4834C31.1444 21.0194 30.9217 20.5555 30.6866 20.0915C30.4639 19.6585 30.2226 19.2316 29.9999 18.7986C29.7834 18.3841 29.5917 17.9573 29.3813 17.5366C29.1524 17.085 28.9112 16.6334 28.6823 16.1757C28.3792 15.5632 28.0946 14.9446 27.7915 14.3384C27.5007 13.7569 27.1914 13.1878 26.9007 12.6063C26.6594 12.1299 26.4243 11.6536 26.2016 11.1773C26.0779 10.9113 25.9789 10.6329 25.8614 10.3607C25.6387 9.84105 25.6573 9.30905 25.8057 8.78941C26.0099 8.04707 26.4305 7.42227 27.0615 6.98305C27.3399 6.79128 27.4574 6.71086 27.7791 6.58095C27.9833 6.50053 28.4225 6.37063 28.6452 6.36444C29.8948 6.32114 30.9093 6.74798 31.5589 7.84912C31.9486 8.50485 32.2641 9.21007 32.6229 9.89054C32.9198 10.4597 33.2415 11.0164 33.5384 11.5855C33.7611 12.0124 33.9529 12.4454 34.1632 12.8785C34.3735 13.2991 34.5901 13.7074 34.8066 14.1281C35.0231 14.5425 35.2396 14.957 35.4499 15.3715C35.7716 16.0086 36.0995 16.6458 36.415 17.283C36.6377 17.7284 36.8418 18.1862 37.0707 18.6316C37.2687 19.0337 37.4852 19.4234 37.6955 19.8255C37.8563 20.1286 38.011 20.4317 38.1657 20.741C38.178 20.7349 38.2151 20.7349 38.2461 20.7349Z" fill="#4169DE"/>
<path d="M59.4027 9.89677C59.4027 9.25341 59.4089 8.60387 59.0687 8.01618C58.747 7.46562 58.4006 6.95835 57.782 6.6676C57.0211 6.30881 56.2973 6.16652 55.4436 6.39541C54.7569 6.57481 54.2373 6.92742 53.7919 7.42231C53.1795 8.10279 53.0125 8.93173 53.0125 9.82254C53.0125 12.7115 53.0124 15.7241 53.0186 18.6131C53.0186 21.502 53.0186 24.4528 53.0125 27.3417C53.0125 28.2325 53.1795 29.0676 53.7919 29.7419C54.2373 30.2368 54.7569 30.5894 55.4436 30.7688C56.2973 30.9915 57.0211 30.8554 57.782 30.4966C58.4006 30.2059 58.747 29.6986 59.0687 29.1481C59.4151 28.5604 59.4027 27.9108 59.4027 27.2675C59.4089 24.4033 59.4027 21.4772 59.4027 18.6131C59.4027 15.7489 59.4089 12.761 59.4027 9.89677Z" fill="#4169DE"/>
</svg>
