<svg width="34" height="38" viewBox="0 0 34 38" fill="none" xmlns="http://www.w3.org/2000/svg">
<rect width="34" height="38" fill="white"/>
<path d="M9.5 9.01831C9.5 8.04708 9.97633 7.12534 10.7991 6.60571C10.83 6.58715 10.861 6.56859 10.8919 6.55003C11.3744 6.26547 11.8879 6.08607 12.4632 6.09226C15.3768 6.117 18.2905 6.09226 21.2042 6.16649C22.2435 6.19124 23.258 6.45724 24.254 6.81604C25.5654 7.28618 25.9242 7.48414 27.4708 8.5296C28.0646 9.00593 28.6647 9.48845 29.1781 10.0452C29.7349 10.6453 30.2236 11.3134 30.6876 11.9877C31.0402 12.5011 31.3618 13.0579 31.6093 13.627C31.8691 14.2209 32.0547 14.858 32.2032 15.489C32.3887 16.2747 32.5681 17.0789 32.63 17.8769C32.6857 18.6378 32.6238 19.4172 32.5434 20.1781C32.4754 20.8462 32.3269 21.5143 32.1846 22.1701C32.1166 22.4856 31.9928 22.7949 31.8629 23.098C31.634 23.63 31.4113 24.1682 31.133 24.6754C30.8608 25.1703 30.5453 25.6529 30.1927 26.0983C29.7535 26.6612 29.2833 27.2118 28.776 27.7128C28.3183 28.1706 27.811 28.5975 27.279 28.9563C26.6047 29.4079 25.8995 29.8347 25.1633 30.1749C24.5509 30.4595 23.8766 30.6389 23.2209 30.8121C21.8166 31.239 14.0097 31.0101 12.1353 30.9977C11.727 30.9977 11.3125 31.0534 10.9352 30.8121C10.3537 30.4348 9.84024 30.0079 9.65465 29.2965C9.65465 29.2965 9.65465 29.2965 9.65465 29.2903C9.56186 28.9439 9.5 28.5913 9.5 28.2325V9.01831ZM15.7233 18.6625C15.7233 20.6545 15.7295 22.6402 15.7171 24.6321C15.7171 24.9105 15.8037 24.9848 16.0697 24.9786C17.1646 24.9662 18.2534 24.9662 19.3483 24.9724C20.4124 24.9786 21.4764 24.8981 22.4538 24.4527C22.9982 24.2053 23.5178 23.8836 24.0003 23.531C24.6066 23.0918 25.0458 22.4917 25.4417 21.8484C25.9613 21.0132 26.2212 20.1039 26.314 19.1574C26.3696 18.5883 26.215 18.0006 26.1593 17.4191C26.0789 16.5654 25.7015 15.8107 25.2314 15.1426C24.5323 14.1466 23.623 13.3548 22.4476 12.9094C21.7609 12.6496 21.0805 12.4207 20.3319 12.4269C18.9401 12.4331 17.5482 12.4207 16.1563 12.4145C15.7109 12.4145 15.7109 12.4145 15.7109 12.8785C15.7233 14.8085 15.7233 16.7324 15.7233 18.6625Z" fill="#4169DE"/>
</svg>
