<svg xmlns="http://www.w3.org/2000/svg" width="192" height="192" viewBox="0 0 192 192" fill="none">
  <path d="M105.392 84.0596C99.4102 79.9828 91.5225 80.0271 85.5845 84.1482L43.0441 113.705V181.061H148.996V113.705L105.392 84.0596Z" fill="#EAE3DF"/>
  <path d="M108.671 72.4472C118.331 72.5358 127.371 74.1754 136.012 77.2773L147.224 54.8549C148.154 52.9495 148.509 50.9554 148.509 49.0056C141.33 50.8224 134.55 53.5698 127.992 57.3808C120.68 61.5019 114.299 66.5979 108.671 72.4472Z" fill="#67B4F0"/>
  <path d="M89.6171 97.7487C90.4147 98.1918 91.0794 98.6793 91.877 99.1224C93.428 95.0013 95.4221 90.8359 97.7263 86.9363C100.917 81.5745 104.551 76.7443 108.672 72.3574C108.229 72.3574 107.83 72.3574 107.387 72.3574H106.678C91.6555 72.3574 77.7855 75.991 65.112 83.214C63.3838 84.2332 61.6556 85.2967 60.016 86.4046L60.6364 87.6897C71.0056 89.2849 80.6658 92.5641 89.6171 97.7487Z" fill="#67B4F0"/>
  <path d="M97.815 86.9832C95.4664 90.9714 93.5167 95.0038 91.9657 99.1693C100.917 104.708 108.539 111.666 114.743 120.041L136.146 77.2343C127.505 74.1324 118.465 72.5815 108.805 72.4042C104.639 76.8798 100.917 81.71 97.815 86.9832Z" fill="#2B81DF"/>
  <path d="M91.9659 99.2126C91.1682 98.7695 90.5035 98.282 89.7059 97.8389C80.7547 92.6543 71.0501 89.2865 60.8138 87.8242L85.2303 136.568C85.8507 137.854 86.6926 138.917 87.5789 139.759C87.0471 135.948 86.7812 132.181 86.7812 128.193C86.6926 117.913 88.4208 108.252 91.9659 99.2126Z" fill="#2B81DF"/>
  <path d="M91.9653 99.2128C88.5088 108.341 86.7806 118.001 86.7806 128.282C86.7806 132.27 87.0465 136.037 87.5783 139.848C93.0288 145.21 102.778 144.146 106.456 136.657L114.742 120.084C108.538 111.709 100.916 104.752 91.9653 99.2128Z" fill="#105CD1"/>
  <path d="M148.997 181.063H43V113.707L95.9983 154.076L148.997 113.707V181.063Z" fill="#DBD5D2"/>
  <path d="M43 181.06H148.952L105.348 151.415C99.3661 147.338 91.4784 147.382 85.5405 151.503L43 181.06Z" fill="#CCC8C6"/>
  <path d="M104.417 52.9939C104.595 52.9939 104.816 52.9496 104.993 52.8166C105.437 52.5064 105.569 51.8861 105.259 51.4429C104.329 50.0692 103.221 48.2524 102.866 46.3913C102.645 45.1062 102.822 43.9097 103.398 43.0678C104.196 41.9156 105.658 41.3396 107.209 40.7192C109.07 39.9659 110.976 39.2125 112.039 37.3514C113.058 35.5789 112.748 33.7177 112.527 32.0782C112.305 30.6158 112.128 29.2421 112.748 28.09C113.501 26.7163 114.919 26.1402 116.559 25.4312C118.42 24.6779 120.503 23.7916 121.655 21.4874C123.117 18.607 122.719 14.9734 120.636 12.4475C120.281 12.0044 119.661 11.9601 119.218 12.3146C118.775 12.6691 118.73 13.2895 119.085 13.7326C120.68 15.6381 120.99 18.4298 119.883 20.6011C119.041 22.2407 117.445 22.9054 115.761 23.6144C114.033 24.3234 112.083 25.1653 110.976 27.1594C110.001 28.9319 110.267 30.7488 110.533 32.3884C110.754 33.895 110.931 35.2244 110.311 36.3765C109.602 37.6173 108.051 38.2377 106.456 38.9024C104.683 39.6114 102.866 40.3204 101.759 42.0043C100.872 43.2893 100.562 45.0176 100.872 46.8344C101.271 49.05 102.556 51.1327 103.575 52.6394C103.797 52.8609 104.107 52.9939 104.417 52.9939Z" fill="#EB6949"/>
  <path d="M73.5014 33.3831L77.5342 33.9807L79.2947 22.1016L75.2619 21.5039L73.5014 33.3831Z" fill="#E29F3D"/>
  <path d="M59.0221 52.7396L55.6909 55.0898L62.614 64.9022L65.9451 62.552L59.0221 52.7396Z" fill="#2B81DF"/>
  <path d="M149.001 13.7841L147.484 10L136.337 14.4673L137.854 18.2514L149.001 13.7841Z" fill="#FAB551"/>
</svg>