<svg xmlns="http://www.w3.org/2000/svg" width="17" height="16" viewBox="0 0 17 16" fill="none">
  <g clip-path="url(#clip0_4535_27812)">
    <circle opacity="0.7" cx="8.5" cy="8" r="7" stroke="#3F3F3F" stroke-width="2"/>
    <path opacity="0.7" d="M5.3999 6.05322C5.3999 5.6512 5.52897 5.24495 5.78711 4.83447C6.04525 4.41976 6.42188 4.07699 6.91699 3.80615C7.41211 3.53532 7.98975 3.3999 8.6499 3.3999C9.26351 3.3999 9.80518 3.51416 10.2749 3.74268C10.7446 3.96696 11.1064 4.27376 11.3604 4.66309C11.6185 5.05241 11.7476 5.47559 11.7476 5.93262C11.7476 6.29232 11.6735 6.60758 11.5254 6.87842C11.3815 7.14925 11.208 7.38411 11.0049 7.58301C10.806 7.77767 10.4463 8.10775 9.92578 8.57324C9.7819 8.70443 9.66553 8.8208 9.57666 8.92236C9.49202 9.01969 9.42855 9.11068 9.38623 9.19531C9.34391 9.27572 9.31006 9.35824 9.28467 9.44287C9.26351 9.52327 9.22966 9.66715 9.18311 9.87451C9.1027 10.3146 8.85091 10.5347 8.42773 10.5347C8.20768 10.5347 8.02148 10.4627 7.86914 10.3188C7.72103 10.175 7.64697 9.96126 7.64697 9.67773C7.64697 9.32227 7.70199 9.01546 7.81201 8.75732C7.92204 8.49495 8.06803 8.26644 8.25 8.07178C8.43197 7.87288 8.67741 7.63802 8.98633 7.36719C9.25716 7.13021 9.45182 6.95247 9.57031 6.83398C9.69303 6.71126 9.7946 6.57585 9.875 6.42773C9.95964 6.27962 10.002 6.11882 10.002 5.94531C10.002 5.60677 9.875 5.32113 9.62109 5.08838C9.37142 4.85563 9.04769 4.73926 8.6499 4.73926C8.18441 4.73926 7.84163 4.85775 7.62158 5.09473C7.40153 5.32747 7.21533 5.67236 7.06299 6.12939C6.91911 6.60758 6.64616 6.84668 6.24414 6.84668C6.00716 6.84668 5.80615 6.76416 5.64111 6.59912C5.48031 6.42985 5.3999 6.24788 5.3999 6.05322ZM8.49756 13.0103C8.23942 13.0103 8.01302 12.9277 7.81836 12.7627C7.62793 12.5934 7.53271 12.3586 7.53271 12.0581C7.53271 11.7915 7.62581 11.5672 7.81201 11.3853C7.99821 11.2033 8.22673 11.1123 8.49756 11.1123C8.76416 11.1123 8.98844 11.2033 9.17041 11.3853C9.35238 11.5672 9.44336 11.7915 9.44336 12.0581C9.44336 12.3543 9.34814 12.5871 9.15771 12.7563C8.96729 12.9256 8.74723 13.0103 8.49756 13.0103Z" fill="#262626"/>
  </g>
  <defs>
    <clipPath id="clip0_4535_27812">
      <rect width="16" height="16" fill="white" transform="translate(0.5)"/>
    </clipPath>
  </defs>
</svg>