<svg width="162" height="52" viewBox="0 0 162 52" fill="none" xmlns="http://www.w3.org/2000/svg">
<g filter="url(#filter0_d_1291_17718)">
<rect x="4" y="4" width="154" height="44" rx="2" fill="white"/>
<rect x="20.5" y="16.5" width="19" height="19" rx="9.5" fill="white"/>
<rect x="20.5" y="16.5" width="19" height="19" rx="9.5" stroke="#5793E0"/>
<path opacity="0.6" d="M30 29L30 23" stroke="#3184DD" stroke-width="2" stroke-linecap="round"/>
<path opacity="0.6" d="M27 26L33 26" stroke="#1960CF" stroke-width="2" stroke-linecap="round"/>
<path d="M56.125 31H54.942L50.184 23.785V31H49.001V21.926H50.184L54.942 29.128V21.926H56.125V31ZM64.7166 27.165C64.7166 27.3903 64.7036 27.6287 64.6776 27.88H58.9836C59.027 28.582 59.2653 29.1323 59.6986 29.531C60.1406 29.921 60.6736 30.116 61.2976 30.116C61.809 30.116 62.2336 29.999 62.5716 29.765C62.9183 29.5223 63.161 29.2017 63.2996 28.803H64.5736C64.383 29.4877 64.0016 30.0467 63.4296 30.48C62.8576 30.9047 62.147 31.117 61.2976 31.117C60.6216 31.117 60.015 30.9653 59.4776 30.662C58.949 30.3587 58.533 29.9297 58.2296 29.375C57.9263 28.8117 57.7746 28.1617 57.7746 27.425C57.7746 26.6883 57.922 26.0427 58.2166 25.488C58.5113 24.9333 58.923 24.5087 59.4516 24.214C59.989 23.9107 60.6043 23.759 61.2976 23.759C61.9736 23.759 62.5716 23.9063 63.0916 24.201C63.6116 24.4957 64.0103 24.903 64.2876 25.423C64.5736 25.9343 64.7166 26.515 64.7166 27.165ZM63.4946 26.918C63.4946 26.4673 63.395 26.0817 63.1956 25.761C62.9963 25.4317 62.7233 25.1847 62.3766 25.02C62.0386 24.8467 61.6616 24.76 61.2456 24.76C60.6476 24.76 60.1363 24.9507 59.7116 25.332C59.2956 25.7133 59.0573 26.242 58.9966 26.918H63.4946ZM75.8431 23.876L73.6201 31H72.3981L70.6821 25.345L68.9661 31H67.7441L65.5081 23.876H66.7171L68.3551 29.856L70.1231 23.876H71.3321L73.0611 29.869L74.6731 23.876H75.8431ZM80.191 26.463C80.191 25.579 80.3904 24.786 80.789 24.084C81.1877 23.3733 81.7294 22.8187 82.414 22.42C83.1074 22.0213 83.8744 21.822 84.715 21.822C85.703 21.822 86.5654 22.0603 87.302 22.537C88.0387 23.0137 88.576 23.6897 88.914 24.565H87.497C87.2457 24.019 86.8817 23.5987 86.405 23.304C85.937 23.0093 85.3737 22.862 84.715 22.862C84.0824 22.862 83.5147 23.0093 83.012 23.304C82.5094 23.5987 82.115 24.019 81.829 24.565C81.543 25.1023 81.4 25.735 81.4 26.463C81.4 27.1823 81.543 27.815 81.829 28.361C82.115 28.8983 82.5094 29.3143 83.012 29.609C83.5147 29.9037 84.0824 30.051 84.715 30.051C85.3737 30.051 85.937 29.908 86.405 29.622C86.8817 29.3273 87.2457 28.907 87.497 28.361H88.914C88.576 29.2277 88.0387 29.8993 87.302 30.376C86.5654 30.844 85.703 31.078 84.715 31.078C83.8744 31.078 83.1074 30.883 82.414 30.493C81.7294 30.0943 81.1877 29.544 80.789 28.842C80.3904 28.14 80.191 27.347 80.191 26.463ZM90.308 27.412C90.308 26.684 90.4554 26.047 90.75 25.501C91.0447 24.9463 91.4477 24.5173 91.959 24.214C92.479 23.9107 93.0554 23.759 93.688 23.759C94.312 23.759 94.8537 23.8933 95.313 24.162C95.7724 24.4307 96.1147 24.7687 96.34 25.176V23.876H97.536V31H96.34V29.674C96.106 30.09 95.755 30.4367 95.287 30.714C94.8277 30.9827 94.2904 31.117 93.675 31.117C93.0424 31.117 92.4704 30.961 91.959 30.649C91.4477 30.337 91.0447 29.8993 90.75 29.336C90.4554 28.7727 90.308 28.1313 90.308 27.412ZM96.34 27.425C96.34 26.8877 96.2317 26.4197 96.015 26.021C95.7984 25.6223 95.5037 25.319 95.131 25.111C94.767 24.8943 94.364 24.786 93.922 24.786C93.48 24.786 93.077 24.89 92.713 25.098C92.349 25.306 92.0587 25.6093 91.842 26.008C91.6254 26.4067 91.517 26.8747 91.517 27.412C91.517 27.958 91.6254 28.4347 91.842 28.842C92.0587 29.2407 92.349 29.5483 92.713 29.765C93.077 29.973 93.48 30.077 93.922 30.077C94.364 30.077 94.767 29.973 95.131 29.765C95.5037 29.5483 95.7984 29.2407 96.015 28.842C96.2317 28.4347 96.34 27.9623 96.34 27.425ZM101.053 24.851V29.05C101.053 29.3967 101.127 29.6437 101.274 29.791C101.422 29.9297 101.677 29.999 102.041 29.999H102.912V31H101.846C101.188 31 100.694 30.8483 100.364 30.545C100.035 30.2417 99.8702 29.7433 99.8702 29.05V24.851H98.9472V23.876H99.8702V22.082H101.053V23.876H102.912V24.851H101.053ZM110.921 27.165C110.921 27.3903 110.908 27.6287 110.882 27.88H105.188C105.231 28.582 105.469 29.1323 105.903 29.531C106.345 29.921 106.878 30.116 107.502 30.116C108.013 30.116 108.438 29.999 108.776 29.765C109.122 29.5223 109.365 29.2017 109.504 28.803H110.778C110.587 29.4877 110.206 30.0467 109.634 30.48C109.062 30.9047 108.351 31.117 107.502 31.117C106.826 31.117 106.219 30.9653 105.682 30.662C105.153 30.3587 104.737 29.9297 104.434 29.375C104.13 28.8117 103.979 28.1617 103.979 27.425C103.979 26.6883 104.126 26.0427 104.421 25.488C104.715 24.9333 105.127 24.5087 105.656 24.214C106.193 23.9107 106.808 23.759 107.502 23.759C108.178 23.759 108.776 23.9063 109.296 24.201C109.816 24.4957 110.214 24.903 110.492 25.423C110.778 25.9343 110.921 26.515 110.921 27.165ZM109.699 26.918C109.699 26.4673 109.599 26.0817 109.4 25.761C109.2 25.4317 108.927 25.1847 108.581 25.02C108.243 24.8467 107.866 24.76 107.45 24.76C106.852 24.76 106.34 24.9507 105.916 25.332C105.5 25.7133 105.261 26.242 105.201 26.918H109.699ZM115.495 23.759C116.11 23.759 116.648 23.8933 117.107 24.162C117.575 24.4307 117.922 24.7687 118.147 25.176V23.876H119.343V31.156C119.343 31.806 119.204 32.3823 118.927 32.885C118.65 33.3963 118.251 33.795 117.731 34.081C117.22 34.367 116.622 34.51 115.937 34.51C115.001 34.51 114.221 34.289 113.597 33.847C112.973 33.405 112.605 32.8027 112.492 32.04H113.662C113.792 32.4733 114.061 32.82 114.468 33.08C114.875 33.3487 115.365 33.483 115.937 33.483C116.587 33.483 117.116 33.2793 117.523 32.872C117.939 32.4647 118.147 31.8927 118.147 31.156V29.661C117.913 30.077 117.566 30.4237 117.107 30.701C116.648 30.9783 116.11 31.117 115.495 31.117C114.862 31.117 114.286 30.961 113.766 30.649C113.255 30.337 112.852 29.8993 112.557 29.336C112.262 28.7727 112.115 28.1313 112.115 27.412C112.115 26.684 112.262 26.047 112.557 25.501C112.852 24.9463 113.255 24.5173 113.766 24.214C114.286 23.9107 114.862 23.759 115.495 23.759ZM118.147 27.425C118.147 26.8877 118.039 26.4197 117.822 26.021C117.605 25.6223 117.311 25.319 116.938 25.111C116.574 24.8943 116.171 24.786 115.729 24.786C115.287 24.786 114.884 24.89 114.52 25.098C114.156 25.306 113.866 25.6093 113.649 26.008C113.432 26.4067 113.324 26.8747 113.324 27.412C113.324 27.958 113.432 28.4347 113.649 28.842C113.866 29.2407 114.156 29.5483 114.52 29.765C114.884 29.973 115.287 30.077 115.729 30.077C116.171 30.077 116.574 29.973 116.938 29.765C117.311 29.5483 117.605 29.2407 117.822 28.842C118.039 28.4347 118.147 27.9623 118.147 27.425ZM122.6 25.033C122.808 24.6257 123.103 24.3093 123.484 24.084C123.874 23.8587 124.347 23.746 124.901 23.746V24.968H124.589C123.263 24.968 122.6 25.6873 122.6 27.126V31H121.417V23.876H122.6V25.033ZM129.449 31.117C128.781 31.117 128.175 30.9653 127.629 30.662C127.091 30.3587 126.667 29.9297 126.355 29.375C126.051 28.8117 125.9 28.1617 125.9 27.425C125.9 26.697 126.056 26.0557 126.368 25.501C126.688 24.9377 127.122 24.5087 127.668 24.214C128.214 23.9107 128.825 23.759 129.501 23.759C130.177 23.759 130.788 23.9107 131.334 24.214C131.88 24.5087 132.309 24.9333 132.621 25.488C132.941 26.0427 133.102 26.6883 133.102 27.425C133.102 28.1617 132.937 28.8117 132.608 29.375C132.287 29.9297 131.849 30.3587 131.295 30.662C130.74 30.9653 130.125 31.117 129.449 31.117ZM129.449 30.077C129.873 30.077 130.272 29.9773 130.645 29.778C131.017 29.5787 131.316 29.2797 131.542 28.881C131.776 28.4823 131.893 27.997 131.893 27.425C131.893 26.853 131.78 26.3677 131.555 25.969C131.329 25.5703 131.035 25.2757 130.671 25.085C130.307 24.8857 129.912 24.786 129.488 24.786C129.054 24.786 128.656 24.8857 128.292 25.085C127.936 25.2757 127.65 25.5703 127.434 25.969C127.217 26.3677 127.109 26.853 127.109 27.425C127.109 28.0057 127.213 28.4953 127.421 28.894C127.637 29.2927 127.923 29.5917 128.279 29.791C128.634 29.9817 129.024 30.077 129.449 30.077ZM140.868 23.876L136.578 34.354H135.356L136.76 30.922L133.887 23.876H135.2L137.436 29.648L139.646 23.876H140.868Z" fill="#262626"/>
</g>
<defs>
<filter id="filter0_d_1291_17718" x="0" y="0" width="162" height="52" filterUnits="userSpaceOnUse" color-interpolation-filters="sRGB">
<feFlood flood-opacity="0" result="BackgroundImageFix"/>
<feColorMatrix in="SourceAlpha" type="matrix" values="0 0 0 0 0 0 0 0 0 0 0 0 0 0 0 0 0 0 127 0" result="hardAlpha"/>
<feOffset/>
<feGaussianBlur stdDeviation="2"/>
<feComposite in2="hardAlpha" operator="out"/>
<feColorMatrix type="matrix" values="0 0 0 0 0.591667 0 0 0 0 0.517462 0 0 0 0 0.379653 0 0 0 0.25 0"/>
<feBlend mode="normal" in2="BackgroundImageFix" result="effect1_dropShadow_1291_17718"/>
<feBlend mode="normal" in="SourceGraphic" in2="effect1_dropShadow_1291_17718" result="shape"/>
</filter>
</defs>
</svg>
