<svg width="16" height="16" viewBox="0 0 16 16" fill="none" xmlns="http://www.w3.org/2000/svg">
<g clip-path="url(#clip0_1224_16862)">
<mask id="mask0_1224_16862" style="mask-type:alpha" maskUnits="userSpaceOnUse" x="0" y="9" width="16" height="7">
<rect y="9" width="16" height="7" fill="#D9D9D9"/>
</mask>
<g mask="url(#mask0_1224_16862)">
<circle opacity="0.7" cx="8.00019" cy="8.05828" r="4.37616" stroke="#6C2C23" stroke-width="2"/>
<path opacity="0.7" d="M6.16957 14.9591C6.28086 15.4043 6.68084 15.7166 7.13971 15.7166H8.86028C9.31915 15.7166 9.71913 15.4043 9.83042 14.9591L10.4245 12.5829C10.5822 11.9518 10.1049 11.3404 9.45432 11.3404H6.54567C5.8951 11.3404 5.41774 11.9518 5.57553 12.5829L6.16957 14.9591Z" fill="#945A52"/>
<path opacity="0.7" d="M1.10832 9.9235C0.778441 10.2425 0.707975 10.745 0.937408 11.1424L1.79769 12.6325C2.02713 13.0298 2.49758 13.2201 2.93875 13.0939L5.29358 12.4203C5.91907 12.2413 6.20987 11.5222 5.88458 10.9588L4.43026 8.43987C4.10497 7.87645 3.33681 7.76874 2.86912 8.22096L1.10832 9.9235Z" fill="#945A52"/>
<path opacity="0.7" d="M13.0615 13.0939C13.5027 13.2201 13.9731 13.0298 14.2025 12.6324L15.0628 11.1424C15.2923 10.745 15.2218 10.2425 14.8919 9.92349L13.1311 8.22095C12.6634 7.76873 11.8953 7.87644 11.57 8.43985L10.1157 10.9588C9.79037 11.5222 10.0812 12.2413 10.7067 12.4203L13.0615 13.0939Z" fill="#945A52"/>
</g>
<path opacity="0.7" fill-rule="evenodd" clip-rule="evenodd" d="M3.96786 4.9998C2.60196 4.98259 1.5 3.86998 1.5 2.5C1.5 1.11929 2.61929 0 4 0C4.63525 0 5.21516 0.236935 5.65618 0.627251C5.24555 1.1405 5 1.79158 5 2.5C5 2.85078 5.0602 3.1875 5.17085 3.50039C4.66974 3.906 4.2575 4.41705 3.96786 4.9998Z" fill="#945A52"/>
<path opacity="0.7" fill-rule="evenodd" clip-rule="evenodd" d="M3.93488 8.5H1.34906C0.603993 8.5 0 7.89601 0 7.15094V7C0 4.79086 1.79086 3 4 3C4.37038 3 4.72901 3.05034 5.06941 3.14456C5.09602 3.26609 5.12999 3.38487 5.17085 3.50039C4.15163 4.32538 3.5 5.58659 3.5 7V7.40566C3.5 7.82936 3.66528 8.21446 3.93488 8.5Z" fill="#945A52"/>
<path opacity="0.7" fill-rule="evenodd" clip-rule="evenodd" d="M10.9999 2.5C10.9999 2.85078 10.9397 3.1875 10.8291 3.50039C11.3302 3.906 11.7424 4.41705 12.0321 4.9998C13.398 4.98259 14.4999 3.86998 14.4999 2.5C14.4999 1.11929 13.3806 0 11.9999 0C11.3647 0 10.7848 0.236933 10.3437 0.627249C10.7544 1.1405 10.9999 1.79158 10.9999 2.5Z" fill="#945A52"/>
<path opacity="0.7" fill-rule="evenodd" clip-rule="evenodd" d="M10.9305 3.14455C10.9039 3.26609 10.87 3.38487 10.8291 3.50039C11.8483 4.32538 12.4999 5.58659 12.4999 7V7.40566C12.4999 7.82936 12.3347 8.21446 12.0651 8.5H14.6509C15.396 8.5 15.9999 7.89601 15.9999 7.15094V7C15.9999 4.79086 14.2091 3 11.9999 3C11.6296 3 11.2709 3.05034 10.9305 3.14455Z" fill="#945A52"/>
<path opacity="0.7" d="M9.5 2.5C9.5 3.32843 8.82843 4 8 4C7.17157 4 6.5 3.32843 6.5 2.5C6.5 1.67157 7.17157 1 8 1C8.82843 1 9.5 1.67157 9.5 2.5Z" fill="#6C2C23" stroke="#6C2C23" stroke-width="2"/>
<path opacity="0.7" d="M11 7.33333V7C11 5.34315 9.65685 4 8 4C6.34315 4 5 5.34315 5 7V7.33333C5 7.42538 5.07462 7.5 5.16667 7.5H10.8333C10.9254 7.5 11 7.42538 11 7.33333Z" fill="#6C2C23" stroke="#6C2C23" stroke-width="2"/>
</g>
<defs>
<clipPath id="clip0_1224_16862">
<rect width="16" height="16" fill="white"/>
</clipPath>
</defs>
</svg>
