<svg width="16" height="16" viewBox="0 0 16 16" fill="none" xmlns="http://www.w3.org/2000/svg">
<rect width="16" height="16" fill="#E5E5E5"/>
<g id="04-Icons">
<rect width="1104" height="1057" transform="translate(-32 -260)" fill="white"/>
<g id="Icon/Personal">
<circle id="Ellipse 58" opacity="0.6" cx="8" cy="5" r="2" fill="#B3B3B3"/>
<path id="Ellipse 44" opacity="0.7" d="M11 5C11 3.34315 9.65685 2 8 2C6.34315 2 5 3.34315 5 5" stroke="#B3B3B3" stroke-width="2" stroke-linecap="round"/>
<path id="Rectangle 160" opacity="0.7" d="M14 14.6667V14C14 10.6863 11.3137 8 8 8C4.68629 8 2 10.6863 2 14V14.6667C2 14.8508 2.14924 15 2.33333 15H13.6667C13.8508 15 14 14.8508 14 14.6667Z" fill="#B3B3B3" stroke="#8C8C8C" stroke-width="2"/>
<path id="Vector" opacity="0.7" d="M2 15H13.8" stroke="#8C8C8C" stroke-width="2" stroke-linecap="round" stroke-linejoin="round"/>
<path id="Rectangle 163" opacity="0.7" d="M14 15V14C14 10.6863 11.3137 8 8 8V8" stroke="#B3B3B3" stroke-width="2" stroke-linecap="round"/>
<path id="Rectangle 162" opacity="0.7" d="M2 15V14C2 10.6863 4.68629 8 8 8V8" stroke="#B3B3B3" stroke-width="2" stroke-linecap="round"/>
<path id="Ellipse 45" opacity="0.7" d="M11 5C11 6.65685 9.65685 8 8 8C6.34315 8 5 6.65685 5 5" stroke="#8C8C8C" stroke-width="2" stroke-linecap="round"/>
</g>
</g>
</svg>
